<mxfile host="www.draw.io" modified="2020-02-13T08:52:52.037Z" agent="Mozilla/5.0 (Windows NT 10.0; Win64; x64) AppleWebKit/537.36 (KHTML, like Gecko) Chrome/80.0.3987.87 Safari/537.36" etag="Cv711uhlp3sdmmWueXoo" version="12.6.8" type="github">
  <diagram id="nE_KwRMXmQ_I_JsNjPvw" name="Page-1">
    <mxGraphModel dx="1662" dy="713" grid="1" gridSize="10" guides="1" tooltips="1" connect="1" arrows="1" fold="1" page="1" pageScale="1" pageWidth="2336" pageHeight="1654" math="0" shadow="0">
      <root>
        <mxCell id="0"/>
        <mxCell id="1" parent="0"/>
        <mxCell id="P9tkRw7NEmoltiWsm8Qg-1" value="" style="endArrow=none;html=1;" edge="1" parent="1">
          <mxGeometry width="50" height="50" relative="1" as="geometry">
            <mxPoint x="200" y="660" as="sourcePoint"/>
            <mxPoint x="200" y="60" as="targetPoint"/>
          </mxGeometry>
        </mxCell>
        <mxCell id="P9tkRw7NEmoltiWsm8Qg-2" value="" style="endArrow=classic;html=1;exitX=-0.004;exitY=0.5;exitDx=0;exitDy=0;exitPerimeter=0;" edge="1" parent="1" source="P9tkRw7NEmoltiWsm8Qg-3">
          <mxGeometry width="50" height="50" relative="1" as="geometry">
            <mxPoint x="260" y="88" as="sourcePoint"/>
            <mxPoint x="200" y="90" as="targetPoint"/>
          </mxGeometry>
        </mxCell>
        <mxCell id="P9tkRw7NEmoltiWsm8Qg-3" value="Kick Off laLiga HORECA Inspection Support" style="text;html=1;align=center;verticalAlign=middle;resizable=0;points=[];autosize=1;" vertex="1" parent="1">
          <mxGeometry x="270" y="80" width="250" height="20" as="geometry"/>
        </mxCell>
        <mxCell id="P9tkRw7NEmoltiWsm8Qg-4" value="2018 Jul" style="text;html=1;align=center;verticalAlign=middle;resizable=0;points=[];autosize=1;" vertex="1" parent="1">
          <mxGeometry x="130" y="80" width="60" height="20" as="geometry"/>
        </mxCell>
        <mxCell id="P9tkRw7NEmoltiWsm8Qg-5" value="2018 Ago" style="text;html=1;align=center;verticalAlign=middle;resizable=0;points=[];autosize=1;" vertex="1" parent="1">
          <mxGeometry x="125" y="110" width="70" height="20" as="geometry"/>
        </mxCell>
        <mxCell id="P9tkRw7NEmoltiWsm8Qg-6" value="" style="endArrow=classic;html=1;exitX=-0.004;exitY=0.5;exitDx=0;exitDy=0;exitPerimeter=0;" edge="1" parent="1" source="P9tkRw7NEmoltiWsm8Qg-7">
          <mxGeometry width="50" height="50" relative="1" as="geometry">
            <mxPoint x="260" y="118" as="sourcePoint"/>
            <mxPoint x="200" y="120" as="targetPoint"/>
          </mxGeometry>
        </mxCell>
        <mxCell id="P9tkRw7NEmoltiWsm8Qg-7" value="Compra de aplicación Xquadra" style="text;html=1;align=center;verticalAlign=middle;resizable=0;points=[];autosize=1;" vertex="1" parent="1">
          <mxGeometry x="305" y="110" width="180" height="20" as="geometry"/>
        </mxCell>
        <mxCell id="P9tkRw7NEmoltiWsm8Qg-8" value="2018 Sep" style="text;html=1;align=center;verticalAlign=middle;resizable=0;points=[];autosize=1;" vertex="1" parent="1">
          <mxGeometry x="125" y="140" width="70" height="20" as="geometry"/>
        </mxCell>
        <mxCell id="P9tkRw7NEmoltiWsm8Qg-10" value="" style="endArrow=classic;html=1;exitX=-0.004;exitY=0.5;exitDx=0;exitDy=0;exitPerimeter=0;" edge="1" parent="1" source="P9tkRw7NEmoltiWsm8Qg-11">
          <mxGeometry width="50" height="50" relative="1" as="geometry">
            <mxPoint x="260" y="148" as="sourcePoint"/>
            <mxPoint x="200" y="150" as="targetPoint"/>
          </mxGeometry>
        </mxCell>
        <mxCell id="P9tkRw7NEmoltiWsm8Qg-11" value="Primera puesta en producción" style="text;html=1;align=center;verticalAlign=middle;resizable=0;points=[];autosize=1;" vertex="1" parent="1">
          <mxGeometry x="305" y="140" width="180" height="20" as="geometry"/>
        </mxCell>
        <mxCell id="P9tkRw7NEmoltiWsm8Qg-12" value="" style="endArrow=classic;html=1;exitX=-0.004;exitY=0.5;exitDx=0;exitDy=0;exitPerimeter=0;" edge="1" parent="1" source="P9tkRw7NEmoltiWsm8Qg-13">
          <mxGeometry width="50" height="50" relative="1" as="geometry">
            <mxPoint x="260" y="198" as="sourcePoint"/>
            <mxPoint x="200" y="200" as="targetPoint"/>
          </mxGeometry>
        </mxCell>
        <mxCell id="P9tkRw7NEmoltiWsm8Qg-13" value="Sincronización Xquadra" style="text;html=1;align=center;verticalAlign=middle;resizable=0;points=[];autosize=1;" vertex="1" parent="1">
          <mxGeometry x="325" y="190" width="140" height="20" as="geometry"/>
        </mxCell>
        <mxCell id="P9tkRw7NEmoltiWsm8Qg-16" value="2018 Nov" style="text;html=1;align=center;verticalAlign=middle;resizable=0;points=[];autosize=1;" vertex="1" parent="1">
          <mxGeometry x="125" y="190" width="70" height="20" as="geometry"/>
        </mxCell>
        <mxCell id="P9tkRw7NEmoltiWsm8Qg-17" value="2019 Dic" style="text;html=1;align=center;verticalAlign=middle;resizable=0;points=[];autosize=1;" vertex="1" parent="1">
          <mxGeometry x="130" y="220" width="60" height="20" as="geometry"/>
        </mxCell>
        <mxCell id="P9tkRw7NEmoltiWsm8Qg-18" value="" style="endArrow=classic;html=1;exitX=-0.004;exitY=0.5;exitDx=0;exitDy=0;exitPerimeter=0;" edge="1" parent="1" source="P9tkRw7NEmoltiWsm8Qg-19">
          <mxGeometry width="50" height="50" relative="1" as="geometry">
            <mxPoint x="260" y="228" as="sourcePoint"/>
            <mxPoint x="200" y="230" as="targetPoint"/>
          </mxGeometry>
        </mxCell>
        <mxCell id="P9tkRw7NEmoltiWsm8Qg-19" value="Automatización / Productivización" style="text;html=1;align=center;verticalAlign=middle;resizable=0;points=[];autosize=1;" vertex="1" parent="1">
          <mxGeometry x="300" y="220" width="190" height="20" as="geometry"/>
        </mxCell>
        <mxCell id="P9tkRw7NEmoltiWsm8Qg-20" value="2019 Feb" style="text;html=1;align=center;verticalAlign=middle;resizable=0;points=[];autosize=1;" vertex="1" parent="1">
          <mxGeometry x="125" y="290" width="70" height="20" as="geometry"/>
        </mxCell>
        <mxCell id="P9tkRw7NEmoltiWsm8Qg-21" value="" style="endArrow=classic;html=1;exitX=-0.004;exitY=0.5;exitDx=0;exitDy=0;exitPerimeter=0;" edge="1" parent="1" source="P9tkRw7NEmoltiWsm8Qg-22">
          <mxGeometry width="50" height="50" relative="1" as="geometry">
            <mxPoint x="260" y="298" as="sourcePoint"/>
            <mxPoint x="200" y="300" as="targetPoint"/>
          </mxGeometry>
        </mxCell>
        <mxCell id="P9tkRw7NEmoltiWsm8Qg-22" value="Incluidos clientes legales &lt;br&gt;de operadoras" style="text;html=1;align=center;verticalAlign=middle;resizable=0;points=[];autosize=1;" vertex="1" parent="1">
          <mxGeometry x="320" y="285" width="150" height="30" as="geometry"/>
        </mxCell>
        <mxCell id="P9tkRw7NEmoltiWsm8Qg-23" value="2019 Mar" style="text;html=1;align=center;verticalAlign=middle;resizable=0;points=[];autosize=1;" vertex="1" parent="1">
          <mxGeometry x="125" y="320" width="70" height="20" as="geometry"/>
        </mxCell>
        <mxCell id="P9tkRw7NEmoltiWsm8Qg-24" value="" style="endArrow=classic;html=1;exitX=-0.004;exitY=0.5;exitDx=0;exitDy=0;exitPerimeter=0;" edge="1" parent="1" source="P9tkRw7NEmoltiWsm8Qg-25">
          <mxGeometry width="50" height="50" relative="1" as="geometry">
            <mxPoint x="260" y="328" as="sourcePoint"/>
            <mxPoint x="200" y="330" as="targetPoint"/>
          </mxGeometry>
        </mxCell>
        <mxCell id="P9tkRw7NEmoltiWsm8Qg-25" value="Cuadro de mando v1" style="text;html=1;align=center;verticalAlign=middle;resizable=0;points=[];autosize=1;" vertex="1" parent="1">
          <mxGeometry x="330" y="320" width="130" height="20" as="geometry"/>
        </mxCell>
      </root>
    </mxGraphModel>
  </diagram>
</mxfile>
